<?xml version="1.0" encoding="UTF-8" standalone="no"?>
<svg
   xmlns:dc="http://purl.org/dc/elements/1.1/"
   xmlns:cc="http://creativecommons.org/ns#"
   xmlns:rdf="http://www.w3.org/1999/02/22-rdf-syntax-ns#"
   xmlns:svg="http://www.w3.org/2000/svg"
   xmlns="http://www.w3.org/2000/svg"
   version="1.1"
   id="Capa_1"
   x="0px"
   y="0px"
   viewBox="0 0 35.881 30"
   xml:space="preserve"
   width="35.881001"
   height="30"><metadata
     id="metadata47"><rdf:RDF><cc:Work
         rdf:about=""><dc:format>image/svg+xml</dc:format><dc:type
           rdf:resource="http://purl.org/dc/dcmitype/StillImage" /><dc:title></dc:title></cc:Work></rdf:RDF></metadata><defs
     id="defs45" /><g
     id="g3"
     transform="matrix(0.07063195,0,0,0.07063195,0,-2.940538)"
     style="fill:#ffffff;fill-opacity:1"><g
       id="g5"
       style="fill:#ffffff;fill-opacity:1"><g
         id="g7"
         style="fill:#ffffff;fill-opacity:1"><path
           style="fill:#ffffff;fill-opacity:1"
           d="m 381,390.368 c -11,0 -19,8 -19,19 l 0,19 -324,0 0,-232 51,0 c 11,0 19,-8 19,-19 0,-11 -8,-19 -19,-19 l -70,0 c -11,0 -19,8 -19,19 l 0,270 c 0,11 8,19 19,19 l 362,0 c 11,0 19,-8 19,-19 l 0,-38 c 0,-11 -8,-19 -19,-19 z"
           id="path9" /><path
           style="fill:#ffffff;fill-opacity:1"
           d="m 503,187.368 -140,-140 c -13,-13 -32,-2 -32,14 l 0,62 c -73,3 -131,27 -172,68 -63,63 -63,146 -63,149 0,10 8,19 19,19 7,0 13,-3 16,-9 36,-64 131,-74 184,-74 l 16,0 0,64 c 0,16 20,26 32,14 l 140,-140 c 4,-4 5,-9 5,-14 0,-5 -1,-9 -5,-13 z m -134,107 0,-35 c 0,-10 -7,-18 -17,-19 -1,0 -15,-2 -37,-2 -45,0 -116,7 -169,42 8,-20 20,-42 40,-62 37,-37 93,-57 164,-57 11,0 19,-8 19,-19 l 0,-35 93,93 -93,94 z"
           id="path11" /></g></g></g><g
     id="g13"
     transform="translate(0,-478)" /><g
     id="g15"
     transform="translate(0,-478)" /><g
     id="g17"
     transform="translate(0,-478)" /><g
     id="g19"
     transform="translate(0,-478)" /><g
     id="g21"
     transform="translate(0,-478)" /><g
     id="g23"
     transform="translate(0,-478)" /><g
     id="g25"
     transform="translate(0,-478)" /><g
     id="g27"
     transform="translate(0,-478)" /><g
     id="g29"
     transform="translate(0,-478)" /><g
     id="g31"
     transform="translate(0,-478)" /><g
     id="g33"
     transform="translate(0,-478)" /><g
     id="g35"
     transform="translate(0,-478)" /><g
     id="g37"
     transform="translate(0,-478)" /><g
     id="g39"
     transform="translate(0,-478)" /><g
     id="g41"
     transform="translate(0,-478)" /></svg>