<?xml version="1.0" encoding="UTF-8" standalone="no"?>
<svg
   xmlns:dc="http://purl.org/dc/elements/1.1/"
   xmlns:cc="http://creativecommons.org/ns#"
   xmlns:rdf="http://www.w3.org/1999/02/22-rdf-syntax-ns#"
   xmlns:svg="http://www.w3.org/2000/svg"
   xmlns="http://www.w3.org/2000/svg"
   xml:space="preserve"
   viewBox="0 0 64 40"
   height="40"
   width="64"
   y="0px"
   x="0px"
   id="Capa_1"
   version="1.1"><metadata
     id="metadata41"><rdf:RDF><cc:Work
         rdf:about=""><dc:format>image/svg+xml</dc:format><dc:type
           rdf:resource="http://purl.org/dc/dcmitype/StillImage" /><dc:title></dc:title></cc:Work></rdf:RDF></metadata><defs
     id="defs39" /><g
     transform="matrix(-0.09517805,0,0,0.08992503,41.168316,0)"
     style="fill:#ee2919;fill-opacity:1"
     id="g3"><path
       style="fill:#ee2919;fill-opacity:1"
       id="path5"
       d="M 421.976,196.712 236.111,10.848 C 228.884,3.615 220.219,0 210.131,0 c -9.9,0 -18.464,3.615 -25.697,10.848 L 163.023,32.26 c -7.234,6.853 -10.85,15.418 -10.85,25.697 0,10.277 3.616,18.842 10.85,25.697 l 83.653,83.937 -453.15801,0 c -9.895,0 -17.937,3.568 -24.123,10.707 -6.186,7.139 -9.279,15.752 -9.279,25.837 l 0,36.546 c 0,10.088 3.094,18.698 9.279,25.837 6.185,7.139 14.228,10.704 24.123,10.704 l 453.15401,0 -83.652,83.658 c -7.234,7.228 -10.85,15.89 -10.85,25.981 0,10.089 3.616,18.75 10.85,25.978 l 21.411,21.412 c 7.426,7.043 15.99,10.564 25.697,10.564 9.899,0 18.562,-3.521 25.981,-10.564 L 421.973,248.387 c 7.043,-7.043 10.567,-15.701 10.567,-25.981 0,-10.467 -3.524,-19.036 -10.564,-25.694 z" /></g><g
     transform="translate(0,-404.815)"
     id="g7" /><g
     transform="translate(0,-404.815)"
     id="g9" /><g
     transform="translate(0,-404.815)"
     id="g11" /><g
     transform="translate(0,-404.815)"
     id="g13" /><g
     transform="translate(0,-404.815)"
     id="g15" /><g
     transform="translate(0,-404.815)"
     id="g17" /><g
     transform="translate(0,-404.815)"
     id="g19" /><g
     transform="translate(0,-404.815)"
     id="g21" /><g
     transform="translate(0,-404.815)"
     id="g23" /><g
     transform="translate(0,-404.815)"
     id="g25" /><g
     transform="translate(0,-404.815)"
     id="g27" /><g
     transform="translate(0,-404.815)"
     id="g29" /><g
     transform="translate(0,-404.815)"
     id="g31" /><g
     transform="translate(0,-404.815)"
     id="g33" /><g
     transform="translate(0,-404.815)"
     id="g35" /></svg>